<svg width="36" height="50" viewBox="0 0 36 50" fill="none" xmlns="http://www.w3.org/2000/svg">
<g clip-path="url(#clip0_21_35)">
<path d="M18.3834 25.1481C26.2392 22.5184 32.106 18.8883 31.4873 17.0401C30.8686 15.1919 23.9987 15.8254 16.1429 18.4551C8.28709 21.0849 2.42025 24.7149 3.03893 26.5632C3.65762 28.4114 10.5276 27.7778 18.3834 25.1481Z" fill="#081C6B"/>
<g clip-path="url(#clip1_21_35)">
<path d="M23.283 37.275C23.283 37.275 24.657 38.91 26.016 47.322C26.159 48.205 26.217 49.097 26.233 50H36V21.448C31.613 17.975 25.601 17.259 18.322 19.69C18.322 19.69 12.914 16.69 12.175 15.951C11.456 15.231 10.318 14.395 10.94 16.301C11.304 17.413 11.704 18.674 13.298 21.163C9.86201 23.199 8.78501 25.843 4.74001 34.504C1.65201 41.12 0.0800107 43.269 0.937011 45.797C2.06701 49.134 6.25301 51.392 9.78101 48.818C11.7 47.418 12.027 44.905 16.006 42.595C19.659 42.53 23.283 40.991 23.283 37.275Z" fill="#E1E8ED"/>
<path d="M36 20.012C27.665 14.301 14.354 15.473 15.909 20.19C25.51 18.328 31.77 21.731 36 27.358V20.012Z" fill="#292F33"/>
<path d="M19.663 19.763C16.785 19.996 12.383 21.528 10.243 23.9C10.243 23.9 10.238 18.583 13.932 18.116C20.104 17.337 19.741 18.479 19.741 18.479L19.663 19.763Z" fill="#292F33"/>
<path d="M16.357 15.056C16.915 16.211 20.363 16.846 21.413 21.085C22.464 25.325 18.279 24.036 17.057 21.94C15.696 19.606 15.229 17.778 15.19 16.261C15.169 15.46 15.229 12.723 16.357 15.056Z" fill="#E1E8ED"/>
<path d="M16.596 16.838C17.699 17.806 19.044 19.31 19.246 20.793C19.448 22.276 18.121 21.781 17.51 20.421C16.898 19.062 16.757 17.642 16.376 17.188C15.996 16.734 16.596 16.838 16.596 16.838Z" fill="#66757F"/>
<path d="M16.94 29.525C16.94 30.212 16.383 30.769 15.695 30.769C15.008 30.769 14.451 30.212 14.451 29.525C14.451 28.837 15.008 28.28 15.695 28.28C16.383 28.281 16.94 28.838 16.94 29.525Z" fill="#292F33"/>
<path d="M10.354 23.924C10.321 23.907 10.279 23.91 10.243 23.9C8.70002 25.933 7.32302 29.002 4.75302 34.504C3.39702 37.407 2.33302 39.45 1.63702 41.042C3.26502 41.268 4.92202 39.6 5.58202 37.771C6.25502 35.905 8.79702 32.119 10.509 29.993C12.221 27.866 12.07 24.849 10.354 23.924Z" fill="#E1E8ED"/>
<path d="M28.188 20.312C28.188 20.312 25.892 27.259 25.886 29.259C25.875 33.062 23.199 37.06 23.199 37.06L24.541 40.482C24.541 40.482 27.791 37.442 28.479 30.254C29.05 24.281 31.045 22.587 31.045 22.587L28.188 20.312ZM34.062 23.438C34.062 23.438 31.056 27.073 30 33C28.562 41.062 25.143 42.746 25.143 42.746L25.625 45.187C25.625 45.187 30.906 42.131 32.257 36.072C33.875 28.812 36 27.358 36 27.358L34.062 23.438ZM3.24999 37.438C3.93799 36.724 6.26699 41.246 7.77999 42.322C9.36899 43.452 13.249 43.257 13.481 44.484C11.813 46.188 10.718 48.757 8.64099 49.472C6.56299 50.188 2.93099 50.149 1.40299 46.825C-0.125012 43.5 0.999988 42.125 1.62499 40.688C2.24999 39.251 3.08299 37.75 3.24999 37.438Z" fill="#292F33"/>
<path d="M4.22202 43.917C4.22202 44.798 3.69002 45.511 3.03502 45.511C2.38002 45.511 1.84802 44.798 1.84802 43.917C1.84802 43.035 2.38002 42.321 3.03502 42.321C3.69002 42.321 4.22202 43.035 4.22202 43.917Z" fill="#66757F"/>
<path d="M25.954 46.945C25.954 46.945 30.562 45.375 32.062 43.562C33.562 41.749 36 38 36 38V44.375C36 44.375 34.812 46 32.312 47.313C30.726 48.145 26.22 49.564 26.22 49.564L25.954 46.945ZM25.01 20.08C25.01 20.08 24.063 23 23.813 26C23.563 29 22.688 30.875 21.875 32.188C22.187 27.938 21.187 26.313 21.75 24.063C22.313 21.813 22.62 19.743 22.62 19.743C22.62 19.743 23.25 19.375 23.875 19.438C24.5 19.501 25.01 20.08 25.01 20.08ZM4.75299 34.504C4.75299 34.504 8.68699 34.125 10.5 35.375C12.313 36.625 15.832 42.698 15.832 42.698L14.698 43.451C14.698 43.451 13.001 38.812 9.93799 37.375C6.87499 35.938 3.93799 36.187 3.93799 36.187L4.75299 34.504Z" fill="#292F33"/>
<path d="M5.60498 32.678C5.60498 32.678 11.121 32.32 12.563 34.187C15.313 37.749 16.394 39.197 17.01 42.536L18.795 42.229C18.001 39.312 16.188 34.125 12.876 31.937C9.56398 29.749 6.62598 30.249 6.62598 30.249L5.60498 32.678ZM17.875 26.688C17.25 27.376 19.875 30 19 32.188C18.125 34.376 18.625 37.438 19.125 38.813C19.625 40.188 20.385 41.652 20.385 41.652L22.007 40.506C22.007 40.506 21.75 39 21 36.813C20.25 34.626 20.312 34.563 20.625 32.375C20.938 30.187 18.5 26 17.875 26.688ZM15.045 20.829C15.045 20.829 16.187 22.875 16.125 23.875C16.063 24.875 16.063 26.563 15.5 26.937C14.937 27.311 14.688 24.937 14.312 23.875C13.936 22.813 13.248 21.617 13.248 21.617C13.248 21.617 14.717 20.189 15.045 20.829ZM11.501 22.619C11.501 22.619 13.294 24.017 13.231 25.017C13.168 26.017 14.375 27.624 13.812 27.999C13.249 28.374 11.874 26.749 11.5 25.687C11.126 24.625 10.243 23.9 10.243 23.9C10.243 23.9 11.172 21.979 11.501 22.619ZM8.93798 25.812C8.93798 25.812 10.46 26.793 10.876 27.562C11.291 28.33 12.986 28.949 12.814 29.437C12.641 29.925 10.837 29.339 10.126 28.687C9.41498 28.035 7.78098 28.108 7.78098 28.108L8.93798 25.812Z" fill="#292F33"/>
</g>
<path d="M23.399 15.6697C21.3815 13.5115 11.9762 3.50981 11.2242 3.76154C10.4722 4.01327 8.98371 17.6617 8.67217 20.5995C4.36938 22.9299 2.58528 25.2081 3.03127 26.5404C8.08608 22.7392 12.6869 20.732 16.48 19.4622C20.2731 18.1925 25.1551 17.0254 31.4797 17.0173C31.0337 15.685 28.2376 14.94 23.399 15.6697Z" fill="#0E24B1"/>
<path d="M13.6816 13.5244C13.4258 13.5303 13.2344 13.6191 13.1074 13.791C12.9121 14.0566 12.8145 14.3486 12.8145 14.667C12.8145 14.9736 12.8848 15.2031 13.0254 15.3555C13.1699 15.5117 13.3359 15.5898 13.5234 15.5898C13.7363 15.5898 13.916 15.5117 14.0625 15.3555C14.2168 15.1895 14.2949 14.9229 14.2969 14.5557C14.2988 13.8604 14.0938 13.5166 13.6816 13.5244ZM13.6582 12.9268C14.4492 12.9326 14.8438 13.4951 14.8418 14.6143C14.8398 15.0908 14.7344 15.4531 14.5254 15.7012C14.291 16 13.9336 16.1475 13.4531 16.1436C13.1055 16.1416 12.8105 15.9971 12.5684 15.71C12.3496 15.4502 12.2402 15.085 12.2402 14.6143C12.2402 14.1689 12.3711 13.7744 12.6328 13.4307C12.8906 13.0908 13.2324 12.9229 13.6582 12.9268ZM15.8203 17.6729C15.6172 17.6729 15.5176 17.5752 15.5215 17.3799L15.6152 13.1406C15.6191 12.9277 15.7256 12.8232 15.9346 12.8271C16.0361 12.8291 16.1113 12.8857 16.1602 12.9971C16.2578 12.9209 16.4863 12.8848 16.8457 12.8887C17.1934 12.8906 17.4951 13.0303 17.751 13.3076C18.0049 13.5791 18.1318 13.8965 18.1318 14.2598C18.1338 14.7852 18.0195 15.1914 17.7891 15.4785C17.5312 15.7988 17.2129 15.9727 16.834 16C16.5 16.0254 16.2676 15.9727 16.1367 15.8418C16.1348 15.8398 16.1318 15.8379 16.1279 15.8359L16.0928 17.3975C16.0889 17.5811 15.998 17.6729 15.8203 17.6729ZM16.1807 13.6328L16.1455 15.1504C16.335 15.3613 16.5391 15.459 16.7578 15.4434C17.0469 15.4238 17.2656 15.3037 17.4141 15.083C17.541 14.8975 17.6064 14.6699 17.6104 14.4004C17.6143 14.1484 17.541 13.9287 17.3906 13.7412C17.2617 13.5811 17.0723 13.4844 16.8223 13.4512C16.5566 13.416 16.3428 13.4766 16.1807 13.6328Z" fill="white"/>
<g filter="url(#filter0_f_21_35)">
<path d="M13.6816 13.5244C13.4258 13.5303 13.2344 13.6191 13.1074 13.791C12.9121 14.0566 12.8145 14.3486 12.8145 14.667C12.8145 14.9736 12.8848 15.2031 13.0254 15.3555C13.1699 15.5117 13.3359 15.5898 13.5234 15.5898C13.7363 15.5898 13.916 15.5117 14.0625 15.3555C14.2168 15.1895 14.2949 14.9229 14.2969 14.5557C14.2988 13.8604 14.0938 13.5166 13.6816 13.5244ZM13.6582 12.9268C14.4492 12.9326 14.8438 13.4951 14.8418 14.6143C14.8398 15.0908 14.7344 15.4531 14.5254 15.7012C14.291 16 13.9336 16.1475 13.4531 16.1436C13.1055 16.1416 12.8105 15.9971 12.5684 15.71C12.3496 15.4502 12.2402 15.085 12.2402 14.6143C12.2402 14.1689 12.3711 13.7744 12.6328 13.4307C12.8906 13.0908 13.2324 12.9229 13.6582 12.9268ZM15.8203 17.6729C15.6172 17.6729 15.5176 17.5752 15.5215 17.3799L15.6152 13.1406C15.6191 12.9277 15.7256 12.8232 15.9346 12.8271C16.0361 12.8291 16.1113 12.8857 16.1602 12.9971C16.2578 12.9209 16.4863 12.8848 16.8457 12.8887C17.1934 12.8906 17.4951 13.0303 17.751 13.3076C18.0049 13.5791 18.1318 13.8965 18.1318 14.2598C18.1338 14.7852 18.0195 15.1914 17.7891 15.4785C17.5312 15.7988 17.2129 15.9727 16.834 16C16.5 16.0254 16.2676 15.9727 16.1367 15.8418C16.1348 15.8398 16.1318 15.8379 16.1279 15.8359L16.0928 17.3975C16.0889 17.5811 15.998 17.6729 15.8203 17.6729ZM16.1807 13.6328L16.1455 15.1504C16.335 15.3613 16.5391 15.459 16.7578 15.4434C17.0469 15.4238 17.2656 15.3037 17.4141 15.083C17.541 14.8975 17.6064 14.6699 17.6104 14.4004C17.6143 14.1484 17.541 13.9287 17.3906 13.7412C17.2617 13.5811 17.0723 13.4844 16.8223 13.4512C16.5566 13.416 16.3428 13.4766 16.1807 13.6328Z" fill="#6FADFE"/>
</g>
</g>
<defs>
<filter id="filter0_f_21_35" x="10.2402" y="10.8213" width="9.89453" height="8.85156" filterUnits="userSpaceOnUse" color-interpolation-filters="sRGB">
<feFlood flood-opacity="0" result="BackgroundImageFix"/>
<feBlend mode="normal" in="SourceGraphic" in2="BackgroundImageFix" result="shape"/>
<feGaussianBlur stdDeviation="1" result="effect1_foregroundBlur_21_35"/>
</filter>
<clipPath id="clip0_21_35">
<rect width="36" height="50" fill="white"/>
</clipPath>
<clipPath id="clip1_21_35">
<rect width="36" height="36" fill="white" transform="translate(0 14)"/>
</clipPath>
</defs>
</svg>
